<svg class="main-svg" xmlns="http://www.w3.org/2000/svg" xmlns:xlink="http://www.w3.org/1999/xlink" width="700" height="700" style="" viewBox="0 0 700 700"><rect x="0" y="0" width="700" height="700" style="fill: rgb(255, 255, 255); fill-opacity: 1;"/><defs id="defs-83c9de"><g class="clips"><clipPath id="clip83c9dexyplot" class="plotclip"><rect width="494.99999999999994" height="520"/></clipPath><clipPath class="axesclip" id="clip83c9dex"><rect x="102.50000000000004" y="0" width="494.99999999999994" height="700"/></clipPath><clipPath class="axesclip" id="clip83c9dey"><rect x="0" y="100" width="700" height="520"/></clipPath><clipPath class="axesclip" id="clip83c9dexy"><rect x="102.50000000000004" y="100" width="494.99999999999994" height="520"/></clipPath></g><g class="gradients"/><g class="patterns"/></defs><g class="bglayer"><rect class="bg" x="102.50000000000004" y="100" width="494.99999999999994" height="520" style="fill: rgb(229, 236, 246); fill-opacity: 1; stroke-width: 0;"/></g><g class="layer-below"><g class="imagelayer"/><g class="shapelayer"/></g><g class="cartesianlayer"><g class="subplot xy"><g class="layer-subplot"><g class="shapelayer"/><g class="imagelayer"/></g><g class="minor-gridlayer"><g class="x"/><g class="y"/></g><g class="gridlayer"><g class="x"><path class="xgrid crisp" transform="translate(202.10000000000002,0)" d="M0,100v520" style="stroke: rgb(255, 255, 255); stroke-opacity: 1; stroke-width: 1px;"/><path class="xgrid crisp" transform="translate(300.70000000000005,0)" d="M0,100v520" style="stroke: rgb(255, 255, 255); stroke-opacity: 1; stroke-width: 1px;"/><path class="xgrid crisp" transform="translate(399.30000000000007,0)" d="M0,100v520" style="stroke: rgb(255, 255, 255); stroke-opacity: 1; stroke-width: 1px;"/><path class="xgrid crisp" transform="translate(497.90000000000003,0)" d="M0,100v520" style="stroke: rgb(255, 255, 255); stroke-opacity: 1; stroke-width: 1px;"/></g><g class="y"><path class="ygrid crisp" transform="translate(0,520.4)" d="M102.50000000000004,0h494.99999999999994" style="stroke: rgb(255, 255, 255); stroke-opacity: 1; stroke-width: 1px;"/><path class="ygrid crisp" transform="translate(0,421.8)" d="M102.50000000000004,0h494.99999999999994" style="stroke: rgb(255, 255, 255); stroke-opacity: 1; stroke-width: 1px;"/><path class="ygrid crisp" transform="translate(0,323.2)" d="M102.50000000000004,0h494.99999999999994" style="stroke: rgb(255, 255, 255); stroke-opacity: 1; stroke-width: 1px;"/><path class="ygrid crisp" transform="translate(0,224.6)" d="M102.50000000000004,0h494.99999999999994" style="stroke: rgb(255, 255, 255); stroke-opacity: 1; stroke-width: 1px;"/><path class="ygrid crisp" transform="translate(0,126)" d="M102.50000000000004,0h494.99999999999994" style="stroke: rgb(255, 255, 255); stroke-opacity: 1; stroke-width: 1px;"/></g></g><g class="zerolinelayer"><path class="xzl zl crisp" transform="translate(103.50000000000004,0)" d="M0,100v520" style="stroke: rgb(255, 255, 255); stroke-opacity: 1; stroke-width: 2px;"/><path class="yzl zl crisp" transform="translate(0,619)" d="M102.50000000000004,0h494.99999999999994" style="stroke: rgb(255, 255, 255); stroke-opacity: 1; stroke-width: 2px;"/></g><path class="xlines-below"/><path class="ylines-below"/><g class="overlines-below"/><g class="xaxislayer-below"/><g class="yaxislayer-below"/><g class="overaxes-below"/><g class="plot" transform="translate(102.50000000000004,100)" clip-path="url(#clip83c9dexyplot)"><g class="scatterlayer mlayer"><g class="trace scatter trace98c9ac" style="stroke-miterlimit: 2;"><g class="fills"><g><path class="js-fill" d="M494,519L1,519L1,26L275.72,26.64L275.84,26.85L275.84,26.64L276.55,26.85L276.67,26.85L296.23,27.58L296.35,27.77L296.35,27.58L296.94,27.97L297.06,27.97L297.18,27.97L299.08,28.53L299.2,28.73L299.2,28.53L299.91,28.72L300.02,28.72L301.45,28.9L301.57,28.9L306.78,29.6L306.9,29.79L306.9,29.6L307.61,29.78L307.73,29.78L314.02,30.44L314.13,30.62L314.13,30.44L314.61,30.8L314.84,30.8L314.96,30.79L321.37,31.41L321.48,31.59L321.48,31.41L322.2,31.58L322.32,31.58L326.7,31.85L326.82,32.2L326.82,31.85L326.94,32.37L327.53,32.36L327.65,32.36L332.87,32.77L332.99,32.94L332.99,32.77L333.7,33.1L333.7,32.93L333.81,33.1L338.2,33.51L338.32,33.68L338.32,33.51L339.04,33.66L339.15,33.66L342.47,34.08L342.59,34.41L342.59,34.08L343.3,34.89L343.3,34.72L343.42,34.88L346.86,35.45L346.98,35.61L346.98,35.45L347.69,35.75L347.69,35.59L347.81,35.75L352.31,36.11L352.43,36.58L352.43,36.26L353.03,36.88L353.14,36.88L353.26,36.87L357.53,37.37L357.65,37.68L357.65,37.37L358.36,37.66L358.48,37.65L359.9,38.38L360.02,38.38L364.41,38.85L364.52,39L364.52,38.84L365.12,39.12L365.24,39.12L365.36,39.42L365.36,39.12L365.95,39.55L366.07,39.55L366.18,39.7L366.18,39.54L366.89,39.82L366.89,39.67L367.01,40.11L367.01,39.81L367.37,40.25L367.73,40.24L367.85,40.24L370.1,40.45L370.22,40.89L370.22,40.59L370.81,41.16L370.93,41.16L371.05,41.16L373.77,41.64L373.89,41.93L373.89,41.63L374.25,42.06L374.61,42.05L374.72,42.04L377.21,44.11L377.21,43.39L377.33,44.25L378.4,44.63L378.51,45.2L378.51,44.77L379.11,45.88L379.23,45.87L379.35,46.43L379.35,45.87L379.94,46.97L380.06,46.97L380.18,46.96L382.67,49.62L382.78,49.61L383.85,49.83L383.97,50.51L383.97,49.82L384.68,51.29L384.68,51.16L384.8,51.42L386.23,51.88L386.23,51.74L387.29,52.49L387.41,52.48L388.6,53.62L388.6,53.35L388.71,54.15L388.71,53.61L389.19,54.91L389.42,54.9L389.54,55.02L390.37,55.9L390.37,55.76L390.49,55.89L395.47,65.15L395.47,65.03L397.25,69.82L397.25,69.69L397.37,70.29L397.37,69.8L398.08,70.83L398.08,70.59L398.2,71.43L398.2,70.82L398.91,73.16L398.91,72.92L399.03,73.15L402.58,82.57L402.58,82.23L402.58,82.11L403.65,84.7L403.65,84.47L403.65,84.36L403.65,84.13L404.36,85.51L404.36,85.4L404.48,85.49L405.55,86.47L405.55,86.36L405.67,87.56L405.67,86.45L406.26,88.92L406.38,88.9L406.5,88.88L407.09,89.68L407.09,89.57L407.21,90.43L407.21,89.66L407.92,91.73L407.92,91.41L408.04,91.93L408.04,91.72L408.75,93.23L408.75,93.12L408.87,93.32L409.46,93.77L409.58,94.7L409.58,93.75L410.18,95.57L410.29,95.55L410.41,95.53L411.12,97.63L411.36,97.59L411.48,97.58L413.14,101.44L413.26,101.42L415.98,105.51L415.98,105.41L417.76,110.87L417.88,112.2L417.88,110.86L418.59,115.95L418.59,114.82L418.71,116.21L418.71,115.93L419.42,118.03L419.42,117.01L419.54,118.29L419.54,118.01L420.25,119.63L420.25,118.81L420.37,119.61L420.84,120.25L420.84,119.89L420.96,121.95L420.96,120.23L421.55,122.92L421.67,122.9L421.8,122.88L422.27,123.69L422.27,122.97L422.39,124.38L422.39,123.66L423.1,125.66L423.1,125.48L423.22,127.57L423.22,125.64L423.92,128.74L423.92,128.56L424.04,128.88L424.04,128.71L424.76,132.35L424.76,131.84L424.88,132.74L424.88,132.32L425.59,136.95L425.59,136.04L425.7,137.43L425.7,136.93L426.41,138.68L426.41,138.51L426.54,138.98L426.54,138.65L427.25,141.58L427.25,141.35L427.37,141.64L429.97,149.56L429.97,149.02L429.97,148.94L429.97,148.79L430.68,151.23L430.68,150.85L430.8,151.43L430.8,151.2L431.52,153.75L431.52,153.38L431.64,153.8L431.99,154.61L431.99,153.87L432.11,154.74L432.11,154.59L432.46,155.32L432.82,155.24L432.94,155.29L433.06,155.26L434.13,161.18L434.13,161.11L434.13,161.03L435.19,163.75L435.19,163.54L435.31,163.79L435.43,163.77L436.14,165.48L436.26,165.45L436.38,165.43L441.95,184L441.95,182.83L442.07,186.1L442.07,183.97L442.78,187.66L442.78,187.49L442.9,187.69L443.49,188.86L443.61,189.3L443.61,188.83L444.32,191.36L444.32,191.12L444.44,191.44L445.39,193.69L445.39,193.12L445.51,193.95L445.51,193.66L446.22,198.94L446.22,198.39L446.34,200.56L446.34,198.91L447.05,202.56L447.05,202.4L447.16,202.53L450.01,210.97L450.01,210.91L450.13,210.93L450.25,210.9L451.79,215.95L451.79,215.75L451.79,215.7L455.82,229.57L455.82,229.53L455.82,229.17L456.53,230.7L456.53,230.66L456.65,231.02L456.65,230.67L457.37,233.91L457.37,233.48L457.48,234.1L457.48,233.88L458.19,236.07L458.19,236.03L458.31,238.3L458.31,236.04L459.02,241.34L459.02,239.83L459.14,241.63L459.14,241.31L459.85,244.36L459.85,243.77L459.97,244.37L460.8,246.85L460.8,245.72L460.92,248.82L460.92,246.82L461.63,250.19L461.63,249.96L461.75,250.38L461.75,250.15L462.46,252.43L462.46,252.1L462.58,253.07L462.58,252.4L463.29,257.01L463.29,256.44L463.41,258.58L463.41,256.98L464.12,263.84L464.12,261.84L464.24,264.08L464.24,263.81L464.95,266.3L464.95,266L465.07,267.39L465.07,266.27L465.78,270.53L465.78,269.51L465.9,270.73L465.9,270.5L466.61,274.56L466.61,274.09L466.73,275.05L466.73,274.52L467.44,278.37L467.44,278.28L467.56,279.29L467.56,278.34L468.27,282.98L468.27,281.77L468.39,283.09L468.51,283.2L468.51,283.06L468.63,284.99L468.63,283.17L469.34,288.87L469.34,288.22L469.46,290.06L469.46,288.84L470.05,294.46L470.17,294.43L470.29,295.59L470.29,294.43L471,297.08L471,296.98L471.11,297.45L471.11,297.05L471.83,300.48L471.83,300.41L471.95,301.01L471.95,300.45L472.54,303.71L472.66,303.68L472.78,304.17L472.78,303.65L473.49,306.06L473.49,305.5L473.6,306.37L473.6,306.03L474.32,310.83L474.32,310.43L474.44,311.2L474.44,310.8L475.03,313.35L475.15,313.32L475.27,313.65L475.27,313.31L475.98,317.02L475.98,316.58L476.09,317.93L476.09,316.99L476.81,323.02L476.81,322.94L476.93,323.32L476.93,322.99L477.64,324.59L477.64,323.55L477.76,324.8L477.76,324.56L478.47,328.93L478.47,327.85L478.58,328.93L478.94,329.08L478.94,329.07L479.06,330.85L479.06,329.06L479.77,335.62L479.77,335.18L479.89,336.52L479.89,335.59L480.6,342.27L480.6,341.55L480.72,342.26L482.14,344.03L482.14,343.91L482.26,344.41L482.26,344L482.97,346.37L482.97,346.16L483.09,347.41L483.09,346.34L483.8,353.27L483.8,351.83L483.92,354.56L483.92,353.24L484.63,358.96L484.63,357.72L484.75,359.18L484.75,358.93L485.46,360.09L485.46,359.48L485.58,360.45L485.58,360.06L486.29,364.38L486.29,363.79L486.41,364.47L486.65,364.65L486.65,364.63L486.77,366.79L486.77,364.63L487.48,378.06L487.48,377.4L487.6,379.19L487.6,378.04L488.31,384.26L488.31,383.46L488.43,384.77L488.43,384.23L489.14,391.15L489.14,389.04L489.26,391.28L489.26,391.12L489.97,393.56L489.97,393.52L490.09,393.55L490.32,393.51L491.39,401.03L491.39,400.9L491.51,405.69L491.51,401.01L492.22,410.36L492.22,408.7L492.34,410.55L492.34,410.34L493.05,413.69L493.05,413.62L493.17,413.67L493.29,413.65L493.88,425.61L494,425.59" style="fill: rgb(99, 110, 250); fill-opacity: 0.5; stroke-width: 0;"/></g></g><g class="errorbars"/><g class="lines"><path class="js-line" d="M1,26L275.72,26.64L275.84,26.85L275.84,26.64L276.55,26.85L276.67,26.85L296.23,27.58L296.35,27.77L296.35,27.58L296.94,27.97L297.06,27.97L297.18,27.97L299.08,28.53L299.2,28.73L299.2,28.53L299.91,28.72L300.02,28.72L301.45,28.9L301.57,28.9L306.78,29.6L306.9,29.79L306.9,29.6L307.61,29.78L307.73,29.78L314.02,30.44L314.13,30.62L314.13,30.44L314.61,30.8L314.84,30.8L314.96,30.79L321.37,31.41L321.48,31.59L321.48,31.41L322.2,31.58L322.32,31.58L326.7,31.85L326.82,32.2L326.82,31.85L326.94,32.37L327.53,32.36L327.65,32.36L332.87,32.77L332.99,32.94L332.99,32.77L333.7,33.1L333.7,32.93L333.81,33.1L338.2,33.51L338.32,33.68L338.32,33.51L339.04,33.66L339.15,33.66L342.47,34.08L342.59,34.41L342.59,34.08L343.3,34.89L343.3,34.72L343.42,34.88L346.86,35.45L346.98,35.61L346.98,35.45L347.69,35.75L347.69,35.59L347.81,35.75L352.31,36.11L352.43,36.58L352.43,36.26L353.03,36.88L353.14,36.88L353.26,36.87L357.53,37.37L357.65,37.68L357.65,37.37L358.36,37.66L358.48,37.65L359.9,38.38L360.02,38.38L364.41,38.85L364.52,39L364.52,38.84L365.12,39.12L365.24,39.12L365.36,39.42L365.36,39.12L365.95,39.55L366.07,39.55L366.18,39.7L366.18,39.54L366.89,39.82L366.89,39.67L367.01,40.11L367.01,39.81L367.37,40.25L367.73,40.24L367.85,40.24L370.1,40.45L370.22,40.89L370.22,40.59L370.81,41.16L370.93,41.16L371.05,41.16L373.77,41.64L373.89,41.93L373.89,41.63L374.25,42.06L374.61,42.05L374.72,42.04L377.21,44.11L377.21,43.39L377.33,44.25L378.4,44.63L378.51,45.2L378.51,44.77L379.11,45.88L379.23,45.87L379.35,46.43L379.35,45.87L379.94,46.97L380.06,46.97L380.18,46.96L382.67,49.62L382.78,49.61L383.85,49.83L383.97,50.51L383.97,49.82L384.68,51.29L384.68,51.16L384.8,51.42L386.23,51.88L386.23,51.74L387.29,52.49L387.41,52.48L388.6,53.62L388.6,53.35L388.71,54.15L388.71,53.61L389.19,54.91L389.42,54.9L389.54,55.02L390.37,55.9L390.37,55.76L390.49,55.89L395.47,65.15L395.47,65.03L397.25,69.82L397.25,69.69L397.37,70.29L397.37,69.8L398.08,70.83L398.08,70.59L398.2,71.43L398.2,70.82L398.91,73.16L398.91,72.92L399.03,73.15L402.58,82.57L402.58,82.23L402.58,82.11L403.65,84.7L403.65,84.47L403.65,84.36L403.65,84.13L404.36,85.51L404.36,85.4L404.48,85.49L405.55,86.47L405.55,86.36L405.67,87.56L405.67,86.45L406.26,88.92L406.38,88.9L406.5,88.88L407.09,89.68L407.09,89.57L407.21,90.43L407.21,89.66L407.92,91.73L407.92,91.41L408.04,91.93L408.04,91.72L408.75,93.23L408.75,93.12L408.87,93.32L409.46,93.77L409.58,94.7L409.58,93.75L410.18,95.57L410.29,95.55L410.41,95.53L411.12,97.63L411.36,97.59L411.48,97.58L413.14,101.44L413.26,101.42L415.98,105.51L415.98,105.41L417.76,110.87L417.88,112.2L417.88,110.86L418.59,115.95L418.59,114.82L418.71,116.21L418.71,115.93L419.42,118.03L419.42,117.01L419.54,118.29L419.54,118.01L420.25,119.63L420.25,118.81L420.37,119.61L420.84,120.25L420.84,119.89L420.96,121.95L420.96,120.23L421.55,122.92L421.67,122.9L421.8,122.88L422.27,123.69L422.27,122.97L422.39,124.38L422.39,123.66L423.1,125.66L423.1,125.48L423.22,127.57L423.22,125.64L423.92,128.74L423.92,128.56L424.04,128.88L424.04,128.71L424.76,132.35L424.76,131.84L424.88,132.74L424.88,132.32L425.59,136.95L425.59,136.04L425.7,137.43L425.7,136.93L426.41,138.68L426.41,138.51L426.54,138.98L426.54,138.65L427.25,141.58L427.25,141.35L427.37,141.64L429.97,149.56L429.97,149.02L429.97,148.94L429.97,148.79L430.68,151.23L430.68,150.85L430.8,151.43L430.8,151.2L431.52,153.75L431.52,153.38L431.64,153.8L431.99,154.61L431.99,153.87L432.11,154.74L432.11,154.59L432.46,155.32L432.82,155.24L432.94,155.29L433.06,155.26L434.13,161.18L434.13,161.11L434.13,161.03L435.19,163.75L435.19,163.54L435.31,163.79L435.43,163.77L436.14,165.48L436.26,165.45L436.38,165.43L441.95,184L441.95,182.83L442.07,186.1L442.07,183.97L442.78,187.66L442.78,187.49L442.9,187.69L443.49,188.86L443.61,189.3L443.61,188.83L444.32,191.36L444.32,191.12L444.44,191.44L445.39,193.69L445.39,193.12L445.51,193.95L445.51,193.66L446.22,198.94L446.22,198.39L446.34,200.56L446.34,198.91L447.05,202.56L447.05,202.4L447.16,202.53L450.01,210.97L450.01,210.91L450.13,210.93L450.25,210.9L451.79,215.95L451.79,215.75L451.79,215.7L455.82,229.57L455.82,229.53L455.82,229.17L456.53,230.7L456.53,230.66L456.65,231.02L456.65,230.67L457.37,233.91L457.37,233.48L457.48,234.1L457.48,233.88L458.19,236.07L458.19,236.03L458.31,238.3L458.31,236.04L459.02,241.34L459.02,239.83L459.14,241.63L459.14,241.31L459.85,244.36L459.85,243.77L459.97,244.37L460.8,246.85L460.8,245.72L460.92,248.82L460.92,246.82L461.63,250.19L461.63,249.96L461.75,250.38L461.75,250.15L462.46,252.43L462.46,252.1L462.58,253.07L462.58,252.4L463.29,257.01L463.29,256.44L463.41,258.58L463.41,256.98L464.12,263.84L464.12,261.84L464.24,264.08L464.24,263.81L464.95,266.3L464.95,266L465.07,267.39L465.07,266.27L465.78,270.53L465.78,269.51L465.9,270.73L465.9,270.5L466.61,274.56L466.61,274.09L466.73,275.05L466.73,274.52L467.44,278.37L467.44,278.28L467.56,279.29L467.56,278.34L468.27,282.98L468.27,281.77L468.39,283.09L468.51,283.2L468.51,283.06L468.63,284.99L468.63,283.17L469.34,288.87L469.34,288.22L469.46,290.06L469.46,288.84L470.05,294.46L470.17,294.43L470.29,295.59L470.29,294.43L471,297.08L471,296.98L471.11,297.45L471.11,297.05L471.83,300.48L471.83,300.41L471.95,301.01L471.95,300.45L472.54,303.71L472.66,303.68L472.78,304.17L472.78,303.65L473.49,306.06L473.49,305.5L473.6,306.37L473.6,306.03L474.32,310.83L474.32,310.43L474.44,311.2L474.44,310.8L475.03,313.35L475.15,313.32L475.27,313.65L475.27,313.31L475.98,317.02L475.98,316.58L476.09,317.93L476.09,316.99L476.81,323.02L476.81,322.94L476.93,323.32L476.93,322.99L477.64,324.59L477.64,323.55L477.76,324.8L477.76,324.56L478.47,328.93L478.47,327.85L478.58,328.93L478.94,329.08L478.94,329.07L479.06,330.85L479.06,329.06L479.77,335.62L479.77,335.18L479.89,336.52L479.89,335.59L480.6,342.27L480.6,341.55L480.72,342.26L482.14,344.03L482.14,343.91L482.26,344.41L482.26,344L482.97,346.37L482.97,346.16L483.09,347.41L483.09,346.34L483.8,353.27L483.8,351.83L483.92,354.56L483.92,353.24L484.63,358.96L484.63,357.72L484.75,359.18L484.75,358.93L485.46,360.09L485.46,359.48L485.58,360.45L485.58,360.06L486.29,364.38L486.29,363.79L486.41,364.47L486.65,364.65L486.65,364.63L486.77,366.79L486.77,364.63L487.48,378.06L487.48,377.4L487.6,379.19L487.6,378.04L488.31,384.26L488.31,383.46L488.43,384.77L488.43,384.23L489.14,391.15L489.14,389.04L489.26,391.28L489.26,391.12L489.97,393.56L489.97,393.52L490.09,393.55L490.32,393.51L491.39,401.03L491.39,400.9L491.51,405.69L491.51,401.01L492.22,410.36L492.22,408.7L492.34,410.55L492.34,410.34L493.05,413.69L493.05,413.62L493.17,413.67L493.29,413.65L493.88,425.61L494,425.59" style="vector-effect: none; fill: none; stroke: rgb(99, 110, 250); stroke-opacity: 1; stroke-width: 2px; opacity: 1;"/></g><g class="points"/><g class="text"/></g></g></g><g class="overplot"/><path class="xlines-above crisp" d="M0,0" style="fill: none;"/><path class="ylines-above crisp" d="M0,0" style="fill: none;"/><g class="overlines-above"/><g class="xaxislayer-above"><g class="xtick"><text text-anchor="middle" x="0" y="633" transform="translate(103.50000000000004,0)" style="font-family: 'Open Sans', verdana, arial, sans-serif; font-size: 12px; fill: rgb(42, 63, 95); fill-opacity: 1; white-space: pre; opacity: 1;">0</text></g><g class="xtick"><text text-anchor="middle" x="0" y="633" style="font-family: 'Open Sans', verdana, arial, sans-serif; font-size: 12px; fill: rgb(42, 63, 95); fill-opacity: 1; white-space: pre; opacity: 1;" transform="translate(202.10000000000002,0)">0.2</text></g><g class="xtick"><text text-anchor="middle" x="0" y="633" style="font-family: 'Open Sans', verdana, arial, sans-serif; font-size: 12px; fill: rgb(42, 63, 95); fill-opacity: 1; white-space: pre; opacity: 1;" transform="translate(300.70000000000005,0)">0.4</text></g><g class="xtick"><text text-anchor="middle" x="0" y="633" style="font-family: 'Open Sans', verdana, arial, sans-serif; font-size: 12px; fill: rgb(42, 63, 95); fill-opacity: 1; white-space: pre; opacity: 1;" transform="translate(399.30000000000007,0)">0.6</text></g><g class="xtick"><text text-anchor="middle" x="0" y="633" style="font-family: 'Open Sans', verdana, arial, sans-serif; font-size: 12px; fill: rgb(42, 63, 95); fill-opacity: 1; white-space: pre; opacity: 1;" transform="translate(497.90000000000003,0)">0.8</text></g><g class="xtick"><text text-anchor="middle" x="0" y="633" style="font-family: 'Open Sans', verdana, arial, sans-serif; font-size: 12px; fill: rgb(42, 63, 95); fill-opacity: 1; white-space: pre; opacity: 1;" transform="translate(596.5,0)">1</text></g></g><g class="yaxislayer-above"><g class="ytick"><text text-anchor="end" x="101.50000000000004" y="4.199999999999999" transform="translate(0,619)" style="font-family: 'Open Sans', verdana, arial, sans-serif; font-size: 12px; fill: rgb(42, 63, 95); fill-opacity: 1; white-space: pre; opacity: 1;">0</text></g><g class="ytick"><text text-anchor="end" x="101.50000000000004" y="4.199999999999999" style="font-family: 'Open Sans', verdana, arial, sans-serif; font-size: 12px; fill: rgb(42, 63, 95); fill-opacity: 1; white-space: pre; opacity: 1;" transform="translate(0,520.4)">0.2</text></g><g class="ytick"><text text-anchor="end" x="101.50000000000004" y="4.199999999999999" style="font-family: 'Open Sans', verdana, arial, sans-serif; font-size: 12px; fill: rgb(42, 63, 95); fill-opacity: 1; white-space: pre; opacity: 1;" transform="translate(0,421.8)">0.4</text></g><g class="ytick"><text text-anchor="end" x="101.50000000000004" y="4.199999999999999" style="font-family: 'Open Sans', verdana, arial, sans-serif; font-size: 12px; fill: rgb(42, 63, 95); fill-opacity: 1; white-space: pre; opacity: 1;" transform="translate(0,323.2)">0.6</text></g><g class="ytick"><text text-anchor="end" x="101.50000000000004" y="4.199999999999999" style="font-family: 'Open Sans', verdana, arial, sans-serif; font-size: 12px; fill: rgb(42, 63, 95); fill-opacity: 1; white-space: pre; opacity: 1;" transform="translate(0,224.6)">0.8</text></g><g class="ytick"><text text-anchor="end" x="101.50000000000004" y="4.199999999999999" style="font-family: 'Open Sans', verdana, arial, sans-serif; font-size: 12px; fill: rgb(42, 63, 95); fill-opacity: 1; white-space: pre; opacity: 1;" transform="translate(0,126)">1</text></g></g><g class="overaxes-above"/></g></g><g class="polarlayer"/><g class="smithlayer"/><g class="ternarylayer"/><g class="geolayer"/><g class="funnelarealayer"/><g class="pielayer"/><g class="iciclelayer"/><g class="treemaplayer"/><g class="sunburstlayer"/><g class="glimages"/><defs id="topdefs-83c9de"><g class="clips"/></defs><g class="layer-above"><g class="imagelayer"/><g class="shapelayer"><g class="shape-group" data-index="0" clip-path="url(#clip83c9dexy)"><path data-index="0" fill-rule="evenodd" d="M103.50000000000004,126L596.5,619" style="opacity: 1; stroke: rgb(42, 63, 95); stroke-opacity: 1; fill: rgb(0, 0, 0); fill-opacity: 0; stroke-dasharray: 9px, 9px; stroke-width: 2px;"/></g></g></g><g class="infolayer"><g class="g-gtitle"><text class="gtitle" x="35" y="50" text-anchor="start" dy="0em" style="font-family: 'Open Sans', verdana, arial, sans-serif; font-size: 17px; fill: rgb(42, 63, 95); opacity: 1; font-weight: normal; white-space: pre;">Precision-Recall Curve (0.9216)</text></g><g class="g-xtitle"><text class="xtitle" x="350" y="661.3" text-anchor="middle" style="font-family: 'Open Sans', verdana, arial, sans-serif; font-size: 14px; fill: rgb(42, 63, 95); opacity: 1; font-weight: normal; white-space: pre;">Recall</text></g><g class="g-ytitle"><text class="ytitle" transform="rotate(-90,60.278125,360)" x="60.278125" y="360" text-anchor="middle" style="font-family: 'Open Sans', verdana, arial, sans-serif; font-size: 14px; fill: rgb(42, 63, 95); opacity: 1; font-weight: normal; white-space: pre;">Precision</text></g></g></svg>